<?xml version="1.0" standalone="no"?>
<!DOCTYPE svg PUBLIC "-//W3C//DTD SVG 20010904//EN"
 "http://www.w3.org/TR/2001/REC-SVG-20010904/DTD/svg10.dtd">
<svg version="1.0" xmlns="http://www.w3.org/2000/svg"
 width="16.000000pt" height="16.000000pt" viewBox="0 0 16.000000 16.000000"
 preserveAspectRatio="xMidYMid meet">
<metadata>
Created by potrace 1.11, written by Peter Selinger 2001-2013
</metadata>
<g transform="translate(0.000000,16.000000) scale(0.002286,-0.002286)"
fill="#000000" stroke="none">
<path d="M2200 5695 c-912 -326 -1296 -467 -1298 -478 -3 -13 387 -3430 392
-3433 0 -1 498 -276 1105 -612 l1103 -611 1101 610 c605 335 1102 611 1104
612 4 5 401 3442 397 3446 -4 5 -2573 922 -2594 926 -8 2 -598 -205 -1310
-460z m2114 -1983 c444 -996 806 -1814 806 -1817 0 -3 -137 -5 -303 -5 l-304
0 -163 405 -163 405 -691 0 -691 0 -160 -401 c-87 -220 -164 -404 -171 -410
-7 -6 -127 -8 -305 -7 -255 3 -294 5 -291 18 7 36 1618 3637 1624 3632 4 -4
369 -823 812 -1820z"/>
<path d="M3265 3785 c-126 -306 -231 -560 -233 -565 -2 -6 166 -10 468 -10
306 0 470 3 468 10 -16 47 -464 1120 -468 1120 -3 0 -108 -250 -235 -555z"/>
</g>
</svg>
